<?xml version="1.0" encoding="UTF-8"?>
<svg width="30px" height="30px" viewBox="0 0 30 30" version="1.1" xmlns="http://www.w3.org/2000/svg" xmlns:xlink="http://www.w3.org/1999/xlink">
    <title>radio-unchecked</title>
    <defs>
        <linearGradient x1="50%" y1="0%" x2="50%" y2="100%" id="linearGradient-1">
            <stop stop-color="#FFFFFF" offset="0%"></stop>
            <stop stop-color="#FFFFFF" offset="100%"></stop>
        </linearGradient>
        <linearGradient x1="50%" y1="0%" x2="50%" y2="100%" id="linearGradient-2">
            <stop stop-color="#000000" stop-opacity="0.1" offset="0%"></stop>
            <stop stop-color="#000000" stop-opacity="0" offset="100%"></stop>
        </linearGradient>
        <path d="M12,0 C18.627417,0 24,5.372583 24,12 C24,18.627417 18.627417,24 12,24 C5.372583,24 0,18.627417 0,12 C0,5.372583 5.372583,0 12,0 Z M12,3 C7.02943725,3 3,7.02943725 3,12 C3,16.9705627 7.02943725,21 12,21 C16.9705627,21 21,16.9705627 21,12 C21,7.02943725 16.9705627,3 12,3 Z" id="path-3"></path>
        <filter x="-18.8%" y="-14.6%" width="137.5%" height="137.5%" filterUnits="objectBoundingBox" id="filter-4">
            <feMorphology radius="1" operator="dilate" in="SourceAlpha" result="shadowSpreadOuter1"></feMorphology>
            <feOffset dx="0" dy="1" in="shadowSpreadOuter1" result="shadowOffsetOuter1"></feOffset>
            <feGaussianBlur stdDeviation="1" in="shadowOffsetOuter1" result="shadowBlurOuter1"></feGaussianBlur>
            <feComposite in="shadowBlurOuter1" in2="SourceAlpha" operator="out" result="shadowBlurOuter1"></feComposite>
            <feColorMatrix values="0 0 0 0 0   0 0 0 0 0   0 0 0 0 0  0 0 0 0.2 0" type="matrix" in="shadowBlurOuter1"></feColorMatrix>
        </filter>
    </defs>
    <g id="radio-unchecked" stroke="none" stroke-width="1" fill="none" fill-rule="evenodd">
        <g transform="translate(3.000000, 3.000000)">
            <g id="形状结合" opacity="0.796223958">
                <use fill="black" fill-opacity="1" filter="url(#filter-4)" xlink:href="#path-3"></use>
                <path stroke="url(#linearGradient-2)" stroke-width="1" d="M12,-0.5 C15.4517797,-0.5 18.5767797,0.899110157 20.8388348,3.16116524 C23.1008898,5.42322031 24.5,8.54822031 24.5,12 C24.5,15.4517797 23.1008898,18.5767797 20.8388348,20.8388348 C18.5767797,23.1008898 15.4517797,24.5 12,24.5 C8.54822031,24.5 5.42322031,23.1008898 3.16116524,20.8388348 C0.899110157,18.5767797 -0.5,15.4517797 -0.5,12 C-0.5,8.54822031 0.899110157,5.42322031 3.16116524,3.16116524 C5.42322031,0.899110157 8.54822031,-0.5 12,-0.5 Z M12,3.5 C9.65278981,3.5 7.52778981,4.45139491 5.98959236,5.98959236 C4.45139491,7.52778981 3.5,9.65278981 3.5,12 C3.5,14.3472102 4.45139491,16.4722102 5.98959236,18.0104076 C7.52778981,19.5486051 9.65278981,20.5 12,20.5 C14.3472102,20.5 16.4722102,19.5486051 18.0104076,18.0104076 C19.5486051,16.4722102 20.5,14.3472102 20.5,12 C20.5,9.65278981 19.5486051,7.52778981 18.0104076,5.98959236 C16.4722102,4.45139491 14.3472102,3.5 12,3.5 Z" fill="url(#linearGradient-1)" fill-rule="evenodd"></path>
            </g>
            <circle id="椭圆形" fill-opacity="0.4" fill="#000000" cx="12" cy="12" r="5"></circle>
        </g>
    </g>
</svg>