<?xml version="1.0" encoding="UTF-8"?>
<svg width="680px" height="680px" viewBox="0 0 680 680" version="1.1" xmlns="http://www.w3.org/2000/svg" xmlns:xlink="http://www.w3.org/1999/xlink">
    <title>棋盘</title>
    <defs>
        <filter x="-3.3%" y="-3.3%" width="106.6%" height="106.6%" filterUnits="objectBoundingBox" id="filter-1">
            <feOffset dx="0" dy="2" in="SourceAlpha" result="shadowOffsetOuter1"></feOffset>
            <feGaussianBlur stdDeviation="4.5" in="shadowOffsetOuter1" result="shadowBlurOuter1"></feGaussianBlur>
            <feColorMatrix values="0 0 0 0 0   0 0 0 0 0   0 0 0 0 0  0 0 0 0.3 0" type="matrix" in="shadowBlurOuter1" result="shadowMatrixOuter1"></feColorMatrix>
            <feMerge>
                <feMergeNode in="shadowMatrixOuter1"></feMergeNode>
                <feMergeNode in="SourceGraphic"></feMergeNode>
            </feMerge>
        </filter>
        <linearGradient x1="50%" y1="0%" x2="50%" y2="100%" id="linearGradient-2">
            <stop stop-color="#FFFFFF" offset="0%"></stop>
            <stop stop-color="#D7A26C" offset="100%"></stop>
        </linearGradient>
        <rect id="path-3" x="4" y="4" width="640" height="640" rx="34"></rect>
        <linearGradient x1="50%" y1="0%" x2="50%" y2="100%" id="linearGradient-5">
            <stop stop-color="#FFFFFF" stop-opacity="0.2" offset="0%"></stop>
            <stop stop-color="#FFFFFF" stop-opacity="0" offset="100%"></stop>
        </linearGradient>
    </defs>
    <g id="页面-1" stroke="none" stroke-width="1" fill="none" fill-rule="evenodd">
        <g id="1首页" transform="translate(-475.000000, -243.000000)">
            <g id="编组-6" transform="translate(435.000000, 175.000000)">
                <g id="棋盘" filter="url(#filter-1)" transform="translate(56.000000, 84.000000)">
                    <mask id="mask-4" fill="white">
                        <use xlink:href="#path-3"></use>
                    </mask>
                    <use id="矩形" fill="url(#linearGradient-2)" opacity="0.50098" xlink:href="#path-3"></use>
                    <path d="M610,0 L38,0 C17.0131795,0 0,17.0131795 0,38 L0,610 C0,630.98682 17.0131795,648 38,648 L610,648 C630.98682,648 648,630.98682 648,610 L648,38 C648,17.0131795 630.98682,0 610,0 Z M610,4 C628.777681,4 644,19.2223185 644,38 L644,610 C644,628.777681 628.777681,644 610,644 L38,644 C19.2223185,644 4,628.777681 4,610 L4,38 C4,19.2223185 19.2223185,4 38,4 L610,4 Z" id="矩形" fill-opacity="0.1" fill="#000000" fill-rule="nonzero"></path>
                    <path d="M610,4 C628.777681,4 644,19.2223185 644,38 L644,610 C644,628.777681 628.777681,644 610,644 L38,644 C19.2223185,644 4,628.777681 4,610 L4,38 C4,19.2223185 19.2223185,4 38,4 L610,4 Z M610,8 L38,8 C21.5971429,8 8.26894286,21.1641715 8,37.5038951 L8,38 L8,610 C8,626.402857 21.1641715,639.731057 37.5038951,640 L38,640 L610,640 C626.402857,640 639.731057,626.835828 640,610.496105 L640,610 L640,38 C640,21.5971429 626.835828,8.26894286 610.496105,8 L610,8 Z" id="矩形" fill="url(#linearGradient-5)" fill-rule="nonzero"></path>
                    <rect id="矩形" fill="#F1BD8D" x="24" y="24" width="600" height="600" rx="18"></rect>
                    <g id="线条" transform="translate(24.000000, 24.000000)" fill="#000000" fill-opacity="0.5" opacity="0.502139">
                        <rect id="矩形" x="0" y="39" width="600" height="2"></rect>
                        <rect id="矩形备份" x="0" y="79" width="600" height="2"></rect>
                        <rect id="矩形备份-2" x="0" y="119" width="600" height="2"></rect>
                        <rect id="矩形备份-3" x="0" y="159" width="600" height="2"></rect>
                        <rect id="矩形备份-4" x="0" y="199" width="600" height="2"></rect>
                        <rect id="矩形备份-5" x="0" y="239" width="600" height="2"></rect>
                        <rect id="矩形备份-6" x="0" y="279" width="600" height="2"></rect>
                        <rect id="矩形备份-7" x="0" y="319" width="600" height="2"></rect>
                        <rect id="矩形备份-8" x="0" y="359" width="600" height="2"></rect>
                        <rect id="矩形备份-9" x="0" y="399" width="600" height="2"></rect>
                        <rect id="矩形备份-10" x="0" y="439" width="600" height="2"></rect>
                        <rect id="矩形备份-11" x="0" y="479" width="600" height="2"></rect>
                        <rect id="矩形备份-12" x="0" y="519" width="600" height="2"></rect>
                        <rect id="矩形备份-13" x="0" y="559" width="600" height="2"></rect>
                        <polygon id="矩形备份-14" transform="translate(40.000000, 300.000000) rotate(-270.000000) translate(-40.000000, -300.000000) " points="-260 299 340 299 340 301 -260 301"></polygon>
                        <polygon id="矩形备份-15" transform="translate(80.000000, 300.000000) rotate(-270.000000) translate(-80.000000, -300.000000) " points="-220 299 380 299 380 301 -220 301"></polygon>
                        <polygon id="矩形备份-16" transform="translate(120.000000, 300.000000) rotate(-270.000000) translate(-120.000000, -300.000000) " points="-180 299 420 299 420 301 -180 301"></polygon>
                        <polygon id="矩形备份-17" transform="translate(160.000000, 300.000000) rotate(-270.000000) translate(-160.000000, -300.000000) " points="-140 299 460 299 460 301 -140 301"></polygon>
                        <polygon id="矩形备份-18" transform="translate(200.000000, 300.000000) rotate(-270.000000) translate(-200.000000, -300.000000) " points="-100 299 500 299 500 301 -100 301"></polygon>
                        <polygon id="矩形备份-19" transform="translate(240.000000, 300.000000) rotate(-270.000000) translate(-240.000000, -300.000000) " points="-60 299 540 299 540 301 -60 301"></polygon>
                        <polygon id="矩形备份-20" transform="translate(280.000000, 300.000000) rotate(-270.000000) translate(-280.000000, -300.000000) " points="-20 299 580 299 580 301 -20 301"></polygon>
                        <polygon id="矩形备份-21" transform="translate(320.000000, 300.000000) rotate(-270.000000) translate(-320.000000, -300.000000) " points="20 299 620 299 620 301 20 301"></polygon>
                        <polygon id="矩形备份-22" transform="translate(360.000000, 300.000000) rotate(-270.000000) translate(-360.000000, -300.000000) " points="60 299 660 299 660 301 60 301"></polygon>
                        <polygon id="矩形备份-23" transform="translate(400.000000, 300.000000) rotate(-270.000000) translate(-400.000000, -300.000000) " points="100 299 700 299 700 301 100 301"></polygon>
                        <polygon id="矩形备份-24" transform="translate(440.000000, 300.000000) rotate(-270.000000) translate(-440.000000, -300.000000) " points="140 299 740 299 740 301 140 301"></polygon>
                        <polygon id="矩形备份-25" transform="translate(480.000000, 300.000000) rotate(-270.000000) translate(-480.000000, -300.000000) " points="180 299 780 299 780 301 180 301"></polygon>
                        <polygon id="矩形备份-26" transform="translate(520.000000, 300.000000) rotate(-270.000000) translate(-520.000000, -300.000000) " points="220 299 820 299 820 301 220 301"></polygon>
                        <polygon id="矩形备份-27" transform="translate(560.000000, 300.000000) rotate(-270.000000) translate(-560.000000, -300.000000) " points="260 299 860 299 860 301 260 301"></polygon>
                    </g>
                </g>
            </g>
        </g>
    </g>
</svg>