<?xml version="1.0" encoding="UTF-8"?>
<svg width="30px" height="30px" viewBox="0 0 30 30" version="1.1" xmlns="http://www.w3.org/2000/svg" xmlns:xlink="http://www.w3.org/1999/xlink">
    <title>radio-checked</title>
    <g id="radio-checked" stroke="none" stroke-width="1" fill="none" fill-rule="evenodd">
        <g transform="translate(2.000000, 2.000000)">
            <path d="M13,-0.5 C16.7279221,-0.5 20.1029221,1.01103897 22.5459415,3.45405845 C24.988961,5.89707794 26.5,9.27207794 26.5,13 C26.5,16.7279221 24.988961,20.1029221 22.5459415,22.5459415 C20.1029221,24.988961 16.7279221,26.5 13,26.5 C9.27207794,26.5 5.89707794,24.988961 3.45405845,22.5459415 C1.01103897,20.1029221 -0.5,16.7279221 -0.5,13 C-0.5,9.27207794 1.01103897,5.89707794 3.45405845,3.45405845 C5.89707794,1.01103897 9.27207794,-0.5 13,-0.5 Z M13,3.75 C10.445683,3.75 8.13318303,4.78534152 6.45926227,6.45926227 C4.78534152,8.13318303 3.75,10.445683 3.75,13 C3.75,15.554317 4.78534152,17.866817 6.45926227,19.5407377 C8.13318303,21.2146585 10.445683,22.25 13,22.25 C15.554317,22.25 17.866817,21.2146585 19.5407377,19.5407377 C21.2146585,17.866817 22.25,15.554317 22.25,13 C22.25,10.445683 21.2146585,8.13318303 19.5407377,6.45926227 C17.866817,4.78534152 15.554317,3.75 13,3.75 Z" id="形状结合" stroke-opacity="0.1" stroke="#000000" fill="#FFDB9E"></path>
            <circle id="椭圆形" fill="#FFBC4B" cx="13" cy="13" r="8"></circle>
        </g>
    </g>
</svg>